<?xml version="1.0" encoding="utf-8" ?>
<svg baseProfile="tiny" height="100%" version="1.2" width="100%" xmlns="http://www.w3.org/2000/svg" xmlns:ev="http://www.w3.org/2001/xml-events" xmlns:xlink="http://www.w3.org/1999/xlink"><defs /><text x="1200" y="30">fib(8)</text><line stroke="rgb(10%,10%,16%)" x1="1200" x2="881.149" y1="38" y2="55" /><line stroke="rgb(10%,10%,16%)" x1="1220" x2="1538.851" y1="38" y2="55" /><text x="871.1490036537654" y="70">fib(7)</text><line stroke="rgb(10%,10%,16%)" x1="871.149" x2="677.9079" y1="78" y2="95" /><line stroke="rgb(10%,10%,16%)" x1="891.149" x2="1084.3901" y1="78" y2="95" /><text x="667.9079106775249" y="110">fib(6)</text><line stroke="rgb(10%,10%,16%)" x1="667.9079" x2="552.298" y1="118" y2="135" /><line stroke="rgb(10%,10%,16%)" x1="687.9079" x2="803.5178" y1="118" y2="135" /><text x="542.2980073075307" y="150">fib(5)</text><line stroke="rgb(10%,10%,16%)" x1="542.298" x2="474.6668" y1="158" y2="175" /><line stroke="rgb(10%,10%,16%)" x1="562.298" x2="629.9292" y1="158" y2="175" /><text x="464.6668177012844" y="190">fib(4)</text><line stroke="rgb(10%,10%,16%)" x1="464.6668" x2="426.6881" y1="198" y2="215" /><line stroke="rgb(10%,10%,16%)" x1="484.6668" x2="522.6455" y1="198" y2="215" /><text x="416.6881039375366" y="230">fib(3)</text><line stroke="rgb(10%,10%,16%)" x1="416.6881" x2="397.0356" y1="238" y2="255" /><line stroke="rgb(10%,10%,16%)" x1="436.6881" x2="456.3406" y1="238" y2="255" /><text x="387.0356280950381" y="270">fib(2)</text><line stroke="rgb(10%,10%,16%)" x1="387.0356" x2="378.7094" y1="278" y2="295" /><line stroke="rgb(10%,10%,16%)" x1="407.0356" x2="415.3619" y1="278" y2="295" /><text x="368.7093901737888" y="310">fib(1)</text><text x="405.36186601628737" y="310">fib(0)</text><text x="446.3405797800351" y="270">fib(1)</text><text x="512.6455314650321" y="230">fib(2)</text><line stroke="rgb(10%,10%,16%)" x1="512.6455" x2="504.3193" y1="238" y2="255" /><line stroke="rgb(10%,10%,16%)" x1="532.6455" x2="540.9718" y1="238" y2="255" /><text x="494.31929354378286" y="270">fib(1)</text><text x="530.9717693862814" y="270">fib(0)</text><text x="619.9291969137771" y="190">fib(3)</text><line stroke="rgb(10%,10%,16%)" x1="619.9292" x2="600.2767" y1="198" y2="215" /><line stroke="rgb(10%,10%,16%)" x1="639.9292" x2="659.5817" y1="198" y2="215" /><text x="590.2767210712785" y="230">fib(2)</text><line stroke="rgb(10%,10%,16%)" x1="590.2767" x2="581.9505" y1="238" y2="255" /><line stroke="rgb(10%,10%,16%)" x1="610.2767" x2="618.603" y1="238" y2="255" /><text x="571.9504831500293" y="270">fib(1)</text><text x="608.6029589925278" y="270">fib(0)</text><text x="649.5816727562757" y="230">fib(1)</text><text x="793.5178140475191" y="150">fib(4)</text><line stroke="rgb(10%,10%,16%)" x1="793.5178" x2="755.5391" y1="158" y2="175" /><line stroke="rgb(10%,10%,16%)" x1="813.5178" x2="851.4965" y1="158" y2="175" /><text x="745.5391002837713" y="190">fib(3)</text><line stroke="rgb(10%,10%,16%)" x1="745.5391" x2="725.8866" y1="198" y2="215" /><line stroke="rgb(10%,10%,16%)" x1="765.5391" x2="785.1916" y1="198" y2="215" /><text x="715.8866244412727" y="230">fib(2)</text><line stroke="rgb(10%,10%,16%)" x1="715.8866" x2="707.5604" y1="238" y2="255" /><line stroke="rgb(10%,10%,16%)" x1="735.8866" x2="744.2129" y1="238" y2="255" /><text x="697.5603865200235" y="270">fib(1)</text><text x="734.212862362522" y="270">fib(0)</text><text x="775.1915761262699" y="230">fib(1)</text><text x="841.4965278112669" y="190">fib(2)</text><line stroke="rgb(10%,10%,16%)" x1="841.4965" x2="833.1703" y1="198" y2="215" /><line stroke="rgb(10%,10%,16%)" x1="861.4965" x2="869.8228" y1="198" y2="215" /><text x="823.1702898900177" y="230">fib(1)</text><text x="859.8227657325161" y="230">fib(0)</text><text x="1074.390096630006" y="110">fib(5)</text><line stroke="rgb(10%,10%,16%)" x1="1074.3901" x2="1006.7589" y1="118" y2="135" /><line stroke="rgb(10%,10%,16%)" x1="1094.3901" x2="1162.0213" y1="118" y2="135" /><text x="996.7589070237595" y="150">fib(4)</text><line stroke="rgb(10%,10%,16%)" x1="996.7589" x2="958.7802" y1="158" y2="175" /><line stroke="rgb(10%,10%,16%)" x1="1016.7589" x2="1054.7376" y1="158" y2="175" /><text x="948.7801932600117" y="190">fib(3)</text><line stroke="rgb(10%,10%,16%)" x1="948.7802" x2="929.1277" y1="198" y2="215" /><line stroke="rgb(10%,10%,16%)" x1="968.7802" x2="988.4327" y1="198" y2="215" /><text x="919.1277174175132" y="230">fib(2)</text><line stroke="rgb(10%,10%,16%)" x1="919.1277" x2="910.8015" y1="238" y2="255" /><line stroke="rgb(10%,10%,16%)" x1="939.1277" x2="947.454" y1="238" y2="255" /><text x="900.8014794962639" y="270">fib(1)</text><text x="937.4539553387624" y="270">fib(0)</text><text x="978.4326691025103" y="230">fib(1)</text><text x="1044.7376207875072" y="190">fib(2)</text><line stroke="rgb(10%,10%,16%)" x1="1044.7376" x2="1036.4114" y1="198" y2="215" /><line stroke="rgb(10%,10%,16%)" x1="1064.7376" x2="1073.0639" y1="198" y2="215" /><text x="1026.411382866258" y="230">fib(1)</text><text x="1063.0638587087565" y="230">fib(0)</text><text x="1152.0212862362523" y="150">fib(3)</text><line stroke="rgb(10%,10%,16%)" x1="1152.0213" x2="1132.3688" y1="158" y2="175" /><line stroke="rgb(10%,10%,16%)" x1="1172.0213" x2="1191.6738" y1="158" y2="175" /><text x="1122.3688103937538" y="190">fib(2)</text><line stroke="rgb(10%,10%,16%)" x1="1122.3688" x2="1114.0426" y1="198" y2="215" /><line stroke="rgb(10%,10%,16%)" x1="1142.3688" x2="1150.695" y1="198" y2="215" /><text x="1104.0425724725046" y="230">fib(1)</text><text x="1140.695048315003" y="230">fib(0)</text><text x="1181.6737620787508" y="190">fib(1)</text><text x="1528.8509963462348" y="70">fib(6)</text><line stroke="rgb(10%,10%,16%)" x1="1528.851" x2="1413.2411" y1="78" y2="95" /><line stroke="rgb(10%,10%,16%)" x1="1548.851" x2="1664.4609" y1="78" y2="95" /><text x="1403.2410929762407" y="110">fib(5)</text><line stroke="rgb(10%,10%,16%)" x1="1403.2411" x2="1335.6099" y1="118" y2="135" /><line stroke="rgb(10%,10%,16%)" x1="1423.2411" x2="1490.8723" y1="118" y2="135" /><text x="1325.6099033699943" y="150">fib(4)</text><line stroke="rgb(10%,10%,16%)" x1="1325.6099" x2="1287.6312" y1="158" y2="175" /><line stroke="rgb(10%,10%,16%)" x1="1345.6099" x2="1383.5886" y1="158" y2="175" /><text x="1277.6311896062466" y="190">fib(3)</text><line stroke="rgb(10%,10%,16%)" x1="1277.6312" x2="1257.9787" y1="198" y2="215" /><line stroke="rgb(10%,10%,16%)" x1="1297.6312" x2="1317.2837" y1="198" y2="215" /><text x="1247.9787137637481" y="230">fib(2)</text><line stroke="rgb(10%,10%,16%)" x1="1247.9787" x2="1239.6525" y1="238" y2="255" /><line stroke="rgb(10%,10%,16%)" x1="1267.9787" x2="1276.305" y1="238" y2="255" /><text x="1229.652475842499" y="270">fib(1)</text><text x="1266.3049516849974" y="270">fib(0)</text><text x="1307.283665448745" y="230">fib(1)</text><text x="1373.588617133742" y="190">fib(2)</text><line stroke="rgb(10%,10%,16%)" x1="1373.5886" x2="1365.2624" y1="198" y2="215" /><line stroke="rgb(10%,10%,16%)" x1="1393.5886" x2="1401.9149" y1="198" y2="215" /><text x="1355.2623792124928" y="230">fib(1)</text><text x="1391.9148550549912" y="230">fib(0)</text><text x="1480.872282582487" y="150">fib(3)</text><line stroke="rgb(10%,10%,16%)" x1="1480.8723" x2="1461.2198" y1="158" y2="175" /><line stroke="rgb(10%,10%,16%)" x1="1500.8723" x2="1520.5248" y1="158" y2="175" /><text x="1451.2198067399886" y="190">fib(2)</text><line stroke="rgb(10%,10%,16%)" x1="1451.2198" x2="1442.8936" y1="198" y2="215" /><line stroke="rgb(10%,10%,16%)" x1="1471.2198" x2="1479.546" y1="198" y2="215" /><text x="1432.8935688187394" y="230">fib(1)</text><text x="1469.5460446612378" y="230">fib(0)</text><text x="1510.5247584249855" y="190">fib(1)</text><text x="1654.4608997162288" y="110">fib(4)</text><line stroke="rgb(10%,10%,16%)" x1="1654.4609" x2="1616.4822" y1="118" y2="135" /><line stroke="rgb(10%,10%,16%)" x1="1674.4609" x2="1712.4396" y1="118" y2="135" /><text x="1606.4821859524811" y="150">fib(3)</text><line stroke="rgb(10%,10%,16%)" x1="1606.4822" x2="1586.8297" y1="158" y2="175" /><line stroke="rgb(10%,10%,16%)" x1="1626.4822" x2="1646.1347" y1="158" y2="175" /><text x="1576.8297101099827" y="190">fib(2)</text><line stroke="rgb(10%,10%,16%)" x1="1576.8297" x2="1568.5035" y1="198" y2="215" /><line stroke="rgb(10%,10%,16%)" x1="1596.8297" x2="1605.1559" y1="198" y2="215" /><text x="1558.5034721887334" y="230">fib(1)</text><text x="1595.155948031232" y="230">fib(0)</text><text x="1636.1346617949796" y="190">fib(1)</text><text x="1702.4396134799765" y="150">fib(2)</text><line stroke="rgb(10%,10%,16%)" x1="1702.4396" x2="1694.1134" y1="158" y2="175" /><line stroke="rgb(10%,10%,16%)" x1="1722.4396" x2="1730.7659" y1="158" y2="175" /><text x="1684.1133755587273" y="190">fib(1)</text><text x="1720.7658514012257" y="190">fib(0)</text></svg>